<?xml version="1.0" encoding="UTF-8"?>
<!-- Generator: Adobe Illustrator 24.2.0, SVG Export Plug-In . SVG Version: 6.00 Build 0)  -->
<svg xmlns="http://www.w3.org/2000/svg" xmlns:xlink="http://www.w3.org/1999/xlink" version="1.1" id="Layer_1" x="0px" y="0px" viewBox="0 0 149.9 72.2" style="enable-background:new 0 0 149.9 72.2;" xml:space="preserve">
<style type="text/css">
	.st0{fill:#00645C;}
	.st1{fill:#EC6338;}
</style>
<g>
	<path class="st0" d="M87.2,29.4c-2.7,3.8-7.1,6.3-12.1,6.3H64.3v4.1h10.9c6.3,0,11.9-3.2,15.4-8c0.2,0,0.4,0,0.6,0   c-1.4-1-2.7-2-4.1-3C87.1,29.1,87.1,29.3,87.2,29.4z"></path>
	<path class="st0" d="M74.8,2.1c-10.4,0-18.9,8.5-18.9,18.9v10.6h4.1V21c0-8.1,6.7-14.8,14.8-14.8h15v2.7c-0.3,0.8-1,1.4-1.9,1.4   h-2.1H74.9c-5.8,0-10.7,4.8-10.7,10.7v10.7h10.9c3.4,0,6.4-1.6,8.4-4.1H71.9h-3.5V23h13c0.2-0.6,0.3-4.1,0.3-4.1h-4.4h-8.6   c0.9-2.6,3.3-4.5,6.2-4.5h2.3h4.4h4.1h2.1c0.7,0,1.4-0.1,2.1-0.4v0c2.3-0.9,4-3.1,4-5.8V2.1H74.8z"></path>
	<path class="st1" d="M102.3,67.4h2.5V70h-2.5V67.4z"></path>
	<g>
		<g>
			<path class="st0" d="M3.7,64.7c0,1,0.3,1.8,0.9,2.3c0.5,0.5,1.3,0.8,2.1,0.8c1,0,1.9-0.4,2.7-1.2l1.8,1.6c-1.3,1.4-2.8,2.1-4.5,2     c-0.7,0-1.3-0.1-1.9-0.3c-0.3-0.1-0.6-0.2-0.9-0.4c-0.3-0.2-0.6-0.3-0.9-0.6c-0.5-0.5-1-1.1-1.3-2c-0.4-0.8-0.5-1.9-0.5-3.1     c0-1.2,0.2-2.3,0.5-3.1c0.3-0.8,0.7-1.5,1.2-2c0.5-0.5,1.1-0.8,1.7-1.1c0.6-0.2,1.2-0.3,1.8-0.3c1.4,0,2.7,0.5,3.6,1.4     c1,0.9,1.5,2.2,1.5,3.9v2.1H3.7z M9,62.6c0-1-0.3-1.7-0.8-2.2c-0.5-0.5-1.1-0.7-1.9-0.7c-0.8,0-1.4,0.2-1.9,0.7     c-0.5,0.5-0.7,1.2-0.8,2.2H9z"></path>
			<path class="st0" d="M13.7,52.3h2.5v6.4c0.5-0.4,1-0.8,1.5-1.1c0.5-0.3,1.1-0.4,1.7-0.4c1.5,0,2.7,0.6,3.4,1.6     c0.3,0.4,0.6,0.9,0.7,1.6c0.1,0.6,0.2,1.7,0.2,3.2c0,1.5-0.1,2.6-0.2,3.2c-0.1,0.7-0.4,1.2-0.7,1.6c-0.3,0.5-0.8,0.9-1.4,1.2     c-0.6,0.3-1.2,0.5-2,0.5c-1.3,0-2.4-0.5-3.2-1.5V70h-2.5V52.3z M18.7,59.8c-0.6,0-1,0.1-1.3,0.4c-0.3,0.2-0.6,0.5-0.8,0.9     c-0.2,0.4-0.3,0.8-0.3,1.2c0,0.4-0.1,0.9-0.1,1.4c0,0.4,0,0.9,0.1,1.4c0,0.5,0.1,0.9,0.3,1.3c0.2,0.4,0.4,0.7,0.8,0.9     c0.3,0.2,0.8,0.4,1.3,0.4c0.6,0,1.1-0.1,1.4-0.3c0.3-0.2,0.6-0.5,0.7-0.9c0.2-0.4,0.3-0.8,0.3-1.3c0-0.5,0-0.9,0-1.4     c0-0.5,0-1,0-1.5c-0.1-0.4-0.2-0.9-0.3-1.2c-0.1-0.4-0.4-0.7-0.7-0.9C19.8,59.9,19.3,59.8,18.7,59.8z"></path>
			<path class="st0" d="M26.2,52.3h2.5v2.5h-2.5V52.3z M26.2,57.4h2.5V70h-2.5V57.4z"></path>
			<path class="st0" d="M38.6,68.9L38.6,68.9c-0.3,0.4-0.6,0.7-1.1,0.9c-0.5,0.2-1.2,0.3-2,0.3c-1.4,0-2.5-0.4-3.2-1.1     c-0.8-0.7-1.2-1.6-1.2-2.7c0-1.1,0.3-1.9,1-2.6c0.7-0.7,1.7-1.1,3.1-1.1h3.5v-1.3c0-1.1-0.8-1.6-2.6-1.6c-0.6,0-1.1,0.1-1.5,0.2     c-0.4,0.2-0.7,0.4-0.9,0.8l-2-1.5c1-1.3,2.4-1.9,4.2-1.8c1.6,0,2.8,0.3,3.8,0.9c0.9,0.6,1.4,1.7,1.4,3.2V70h-2.5V68.9z      M38.6,64.7h-3c-1.5,0-2.2,0.5-2.2,1.5c0,0.4,0.2,0.8,0.6,1.1c0.4,0.3,1,0.5,1.8,0.5c1.1,0,1.8-0.1,2.2-0.4     c0.4-0.3,0.6-0.9,0.6-1.8V64.7z"></path>
			<path class="st0" d="M48.8,67.7c0.7,0,1.3-0.1,1.8-0.4c0.5-0.3,0.7-0.7,0.7-1.2c0-0.5-0.1-0.8-0.4-0.9c-0.3-0.2-0.7-0.3-1.1-0.3     l-2.2-0.2c-1.1-0.1-1.9-0.5-2.6-1.1c-0.7-0.6-1-1.4-1-2.5c0-1.3,0.5-2.3,1.4-2.9c0.9-0.6,2-1,3.3-1c0.6,0,1.1,0,1.6,0.1     c0.5,0.1,0.9,0.2,1.3,0.3c0.8,0.3,1.5,0.7,2.1,1.3l-1.6,1.8c-0.5-0.3-1-0.6-1.5-0.9c-0.5-0.2-1.1-0.3-1.8-0.3     c-0.8,0-1.3,0.1-1.7,0.4c-0.3,0.3-0.5,0.6-0.5,1.1c0,0.3,0.1,0.5,0.4,0.7c0.2,0.2,0.7,0.4,1.3,0.4l2.1,0.2     c1.3,0.1,2.3,0.5,2.8,1.2c0.5,0.7,0.8,1.5,0.8,2.6c0,1.2-0.5,2.2-1.5,2.8c-1,0.7-2.2,1-3.7,1c-2.1,0-3.9-0.8-5.5-2.3l1.8-1.7     C45.8,67.2,47.2,67.7,48.8,67.7z"></path>
			<path class="st0" d="M55.9,52.3h2.5v6.4h0c0.8-1,1.9-1.5,3.3-1.5c1,0,2,0.4,2.9,1.1c0.9,0.7,1.3,1.8,1.3,3.3V70h-2.5v-7.5     c0-0.9-0.2-1.5-0.7-2c-0.5-0.5-1.1-0.7-1.8-0.7c-0.7,0-1.3,0.2-1.8,0.7c-0.5,0.5-0.7,1.1-0.7,2V70h-2.5V52.3z"></path>
			<path class="st0" d="M75.3,68.9L75.3,68.9c-0.3,0.4-0.6,0.7-1.1,0.9c-0.5,0.2-1.2,0.3-2,0.3c-1.4,0-2.5-0.4-3.2-1.1     c-0.8-0.7-1.2-1.6-1.2-2.7c0-1.1,0.3-1.9,1-2.6c0.7-0.7,1.7-1.1,3.1-1.1h3.5v-1.3c0-1.1-0.8-1.6-2.6-1.6c-0.6,0-1.1,0.1-1.5,0.2     c-0.4,0.2-0.7,0.4-0.9,0.8l-2-1.5c1-1.3,2.4-1.9,4.2-1.8c1.6,0,2.8,0.3,3.8,0.9c0.9,0.6,1.4,1.7,1.4,3.2V70h-2.5V68.9z      M75.3,64.7h-3c-1.5,0-2.2,0.5-2.2,1.5c0,0.4,0.2,0.8,0.6,1.1c0.4,0.3,1,0.5,1.8,0.5c1.1,0,1.8-0.1,2.2-0.4     c0.4-0.3,0.6-0.9,0.6-1.8V64.7z"></path>
			<path class="st0" d="M80.1,57.4h2.5v1.3h0c0.8-1,1.9-1.5,3.3-1.5c1,0,1.9,0.3,2.6,1l-1.8,2.2c-0.5-0.4-1.1-0.6-1.7-0.6     c-0.6,0-1.2,0.2-1.7,0.6c-0.5,0.4-0.8,1.1-0.8,2V70h-2.5V57.4z"></path>
			<path class="st0" d="M96.4,68.9L96.4,68.9c-0.3,0.4-0.6,0.7-1.1,0.9c-0.5,0.2-1.2,0.3-2,0.3c-1.4,0-2.5-0.4-3.2-1.1     c-0.8-0.7-1.2-1.6-1.2-2.7c0-1.1,0.3-1.9,1-2.6c0.7-0.7,1.7-1.1,3.1-1.1h3.5v-1.3c0-1.1-0.8-1.6-2.6-1.6c-0.6,0-1.1,0.1-1.5,0.2     c-0.4,0.2-0.7,0.4-0.9,0.8l-2-1.5c1-1.3,2.4-1.9,4.2-1.8c1.6,0,2.8,0.3,3.8,0.9c0.9,0.6,1.4,1.7,1.4,3.2V70h-2.5V68.9z      M96.4,64.7h-3c-1.5,0-2.2,0.5-2.2,1.5c0,0.4,0.2,0.8,0.6,1.1c0.4,0.3,1,0.5,1.8,0.5c1.1,0,1.8-0.1,2.2-0.4     c0.4-0.3,0.6-0.9,0.6-1.8V64.7z"></path>
		</g>
		<g>
			<path class="st0" d="M117.4,67.9c-0.5,0.6-1.2,1.1-1.9,1.5c-0.7,0.4-1.6,0.6-2.6,0.6c-1.5,0-2.8-0.5-3.9-1.5     c-1.2-1-1.8-2.6-1.8-4.9c0-2.3,0.6-3.9,1.8-5c1.1-1,2.4-1.5,3.9-1.5c1,0,1.8,0.2,2.6,0.6c0.7,0.4,1.4,0.9,1.9,1.6l-1.9,1.7     c-0.6-0.8-1.5-1.3-2.6-1.3c-2.1,0-3.2,1.3-3.3,3.9c0,2.6,1.1,3.9,3.3,3.9c1.1,0,1.9-0.5,2.6-1.3L117.4,67.9z"></path>
			<path class="st0" d="M118.5,63.7c0-1.3,0.1-2.3,0.3-3.1c0.2-0.7,0.6-1.3,1-1.8c0.3-0.4,0.8-0.8,1.5-1.1c0.6-0.3,1.4-0.5,2.4-0.5     c1,0,1.8,0.2,2.4,0.5c0.6,0.3,1.1,0.7,1.4,1.1c0.5,0.5,0.9,1.1,1.1,1.8c0.2,0.7,0.3,1.7,0.3,3.1c0,1.3-0.1,2.3-0.3,3     c-0.2,0.7-0.6,1.3-1.1,1.8c-0.2,0.2-0.4,0.4-0.6,0.5c-0.2,0.2-0.5,0.4-0.8,0.5c-0.6,0.3-1.4,0.5-2.4,0.5c-1,0-1.7-0.2-2.4-0.5     c-0.6-0.3-1.1-0.7-1.5-1.1c-0.5-0.5-0.8-1.1-1-1.8C118.6,66,118.5,65,118.5,63.7z M126.3,63.7c0-0.9,0-1.5-0.1-2     c-0.1-0.4-0.2-0.7-0.5-1c-0.2-0.3-0.5-0.5-0.8-0.7c-0.3-0.2-0.8-0.3-1.2-0.3c-0.4,0-0.8,0.1-1.2,0.3c-0.3,0.2-0.6,0.4-0.8,0.7     c-0.2,0.3-0.4,0.6-0.5,1c-0.1,0.4-0.1,1.1-0.1,1.9c0,0.9,0,1.5,0.1,1.9c0.1,0.4,0.3,0.8,0.5,1.1c0.2,0.2,0.5,0.5,0.8,0.6     c0.4,0.2,0.8,0.3,1.2,0.3c0.5,0,0.9-0.1,1.2-0.3c0.4-0.2,0.6-0.4,0.8-0.6c0.3-0.3,0.4-0.7,0.5-1.1     C126.3,65.2,126.3,64.6,126.3,63.7z"></path>
			<path class="st0" d="M131.2,57.4h2.5v1.3h0c0.8-1,1.9-1.5,3.3-1.5c0.9,0,1.6,0.2,2.1,0.4c0.5,0.3,1,0.7,1.4,1.2     c1-1.1,2.3-1.7,4-1.6c1,0,2,0.4,2.9,1.1c0.9,0.7,1.3,1.8,1.3,3.3V70h-2.5v-7.5c0-0.9-0.2-1.5-0.7-2c-0.5-0.5-1.1-0.7-1.8-0.7     c-0.7,0-1.3,0.2-1.8,0.7c-0.5,0.5-0.7,1.1-0.7,2V70h-2.5v-7.5c0-0.9-0.2-1.5-0.7-2c-0.5-0.5-1.1-0.7-1.8-0.7     c-0.7,0-1.3,0.2-1.8,0.7c-0.5,0.5-0.7,1.1-0.7,2V70h-2.5V57.4z"></path>
		</g>
	</g>
	<path class="st1" d="M91.1,23.4c-2.4,0-4.4,2-4.4,4.4c0,2.4,2,4.4,4.4,4.4c2.4,0,4.4-2,4.4-4.4C95.5,25.3,93.6,23.4,91.1,23.4z    M91.1,29.3c-0.8,0-1.5-0.7-1.5-1.5c0-0.8,0.7-1.5,1.5-1.5c0.8,0,1.5,0.7,1.5,1.5C92.6,28.6,92,29.3,91.1,29.3z"></path>
	<polygon class="st1" points="55.9,33.6 62.2,33.6 62.2,39.8  "></polygon>
</g>
</svg>
